<?xml version="1.0" encoding="iso-8859-1"?>
<!-- Generator: Adobe Illustrator 19.1.0, SVG Export Plug-In . SVG Version: 6.00 Build 0)  -->
<svg version="1.1" id="Livello_1" xmlns="http://www.w3.org/2000/svg" xmlns:xlink="http://www.w3.org/1999/xlink" x="0px" y="0px"
	 viewBox="0 0 595.28 841.89" style="enable-background:new 0 0 595.28 841.89;" xml:space="preserve">
<line style="display:none;fill:none;stroke:#000000;stroke-miterlimit:10;" x1="0" y1="0" x2="595.28" y2="841.89"/>
<line style="display:none;fill:none;stroke:#000000;stroke-miterlimit:10;" x1="0" y1="841.89" x2="595.28" y2="0"/>
<g>
	<path d="M206.215,280.682c2.967,1.038,4.508,3.165,5.215,6.207c1.088,4.683,2.52,9.286,3.615,13.969
		c0.38,1.625,1.071,2,2.638,1.998c34.053-0.046,68.106-0.04,102.158-0.04c42.322,0,84.644,0.001,126.965,0.006
		c6.052,0.001,8.855,3.977,6.73,9.551c-17.91,46.979-35.824,93.956-53.741,140.932c-1.401,3.673-3.243,4.856-7.72,4.858
		c-24.025,0.013-48.051,0.006-72.076,0.007c-22.463,0.001-44.925,0.002-67.388,0.009c-0.445,0-0.89,0.065-1.642,0.124
		c1.229,7.507,2.441,14.909,3.679,22.467c6.065,0,11.98,0.001,17.895,0c37.241-0.007,74.483-0.017,111.724-0.016
		c6.741,0,11.709,3.233,13.948,9.01c3.332,8.596-2.608,18.263-11.837,18.69c-7.927,0.367-15.882,0.143-23.825,0.144
		c-42.582,0.006-85.165,0.002-127.747,0c-4.352,0-6.516-1.763-7.487-6.09c-6.519-29.049-13.027-58.1-19.556-87.147
		c-6.546-29.118-13.113-58.232-19.671-87.347c-1.629-7.23-3.256-14.46-4.889-21.689c-0.128-0.566-0.288-1.124-0.46-1.792
		c-4.478,0-8.898-0.004-13.318,0.001c-6.576,0.007-13.154-0.07-19.727,0.063c-3.923,0.079-6.675-1.318-7.95-5.159
		c0-4.558,0-9.116,0-13.675c0.842-2.545,2.521-4.251,5.079-5.079C166.624,280.682,186.42,280.682,206.215,280.682z"/>
	<path d="M288.362,539.072c0.138,12.306-10.086,22.748-22.431,22.91c-12.723,0.167-23.234-10.03-23.327-22.629
		c-0.093-12.605,10.075-22.967,22.658-23.091C277.973,516.136,288.219,526.254,288.362,539.072z"/>
	<path d="M395.88,539.322c-0.144,12.684-10.586,22.855-23.268,22.662c-12.454-0.189-22.682-10.691-22.473-23.073
		c0.216-12.756,10.563-22.824,23.282-22.655C385.885,516.422,396.021,526.832,395.88,539.322z"/>
</g>
</svg>
