<?xml version="1.0" encoding="iso-8859-1"?>
<!-- Generator: Adobe Illustrator 19.1.0, SVG Export Plug-In . SVG Version: 6.00 Build 0)  -->
<svg version="1.1" id="Livello_1" xmlns="http://www.w3.org/2000/svg" xmlns:xlink="http://www.w3.org/1999/xlink" x="0px" y="0px"
	 viewBox="0 0 595.28 841.89" style="enable-background:new 0 0 595.28 841.89;" xml:space="preserve">
<line style="display:none;fill:none;stroke:#000000;stroke-miterlimit:10;" x1="0" y1="0" x2="595.28" y2="841.89"/>
<line style="display:none;fill:none;stroke:#000000;stroke-miterlimit:10;" x1="0" y1="841.89" x2="595.28" y2="0"/>
<g style="display:none;">
	<path style="display:inline;" d="M206.215,280.682c2.967,1.038,4.508,3.165,5.215,6.207c1.088,4.683,2.52,9.286,3.615,13.969
		c0.38,1.625,1.071,2,2.638,1.998c34.053-0.046,68.106-0.04,102.158-0.04c42.322,0,84.644,0.001,126.965,0.006
		c6.052,0.001,8.855,3.977,6.73,9.551c-17.91,46.979-35.824,93.956-53.741,140.932c-1.401,3.673-3.243,4.856-7.72,4.858
		c-24.025,0.013-48.051,0.006-72.076,0.007c-22.463,0.001-44.925,0.002-67.388,0.009c-0.445,0-0.89,0.065-1.642,0.124
		c1.229,7.507,2.441,14.909,3.679,22.467c6.065,0,11.98,0.001,17.895,0c37.241-0.007,74.483-0.017,111.724-0.016
		c6.741,0,11.709,3.233,13.948,9.01c3.332,8.596-2.608,18.263-11.837,18.69c-7.927,0.367-15.882,0.143-23.825,0.144
		c-42.582,0.006-85.165,0.002-127.747,0c-4.352,0-6.516-1.763-7.487-6.09c-6.519-29.049-13.027-58.1-19.556-87.147
		c-6.546-29.118-13.113-58.232-19.671-87.347c-1.629-7.23-3.256-14.46-4.889-21.689c-0.128-0.566-0.288-1.124-0.46-1.792
		c-4.478,0-8.898-0.004-13.318,0.001c-6.576,0.007-13.154-0.07-19.727,0.063c-3.923,0.079-6.675-1.318-7.95-5.159
		c0-4.558,0-9.116,0-13.675c0.842-2.545,2.521-4.251,5.079-5.079C166.624,280.682,186.42,280.682,206.215,280.682z"/>
	<path style="display:inline;" d="M288.362,539.072c0.138,12.306-10.086,22.748-22.431,22.91
		c-12.723,0.167-23.234-10.03-23.327-22.629c-0.093-12.605,10.075-22.967,22.658-23.091
		C277.973,516.136,288.219,526.254,288.362,539.072z"/>
	<path style="display:inline;" d="M395.88,539.322c-0.144,12.684-10.586,22.855-23.268,22.662
		c-12.454-0.189-22.682-10.691-22.473-23.073c0.216-12.756,10.563-22.824,23.282-22.655
		C385.885,516.422,396.021,526.832,395.88,539.322z"/>
</g>
<g>
	<path d="M353.626,267.401c-0.6-8.069,0.73-15.429,4.98-21.841c9.721-14.664,27.54-20.945,44.47-15.09
		c7.663,2.65,13.813,7.177,18.035,14.018c2.234,3.619,3.991,7.596,5.458,11.597c0.697,1.9,1.365,2.557,3.347,2.686
		c14.128,0.917,26.276,6.053,35.905,16.776c13.439,14.966,15.568,31.896,8.937,50.315c-1.248,3.467-3.227,6.747-5.322,9.803
		c-1.33,1.94-1.403,3.115-0.079,5.084c12.228,18.195,12.293,42.528-0.686,59.607c-12.47,16.41-29.599,24.104-50.242,23.705
		c-2.993-0.058-6.032-0.352-8.95-0.991c-2.576-0.564-3.274,0.041-3.26,2.652c0.096,18.781,0.077,37.562,0.075,56.343
		c-0.001,21.272-0.019,42.544-0.041,63.815c-0.001,0.909-0.11,1.818-0.195,3.149c-7.484,0-14.816,0.056-22.142-0.122
		c-0.507-0.012-1.384-1.772-1.392-2.725c-0.104-12.866-0.09-25.733-0.093-38.6c-0.005-31.336-0.053-62.673,0.055-94.009
		c0.014-4.027-3.561-5.005-5.29-7.523c-0.266-0.388-1.031-0.471-1.227-0.863c-2.128-4.26-5.452-3.863-9.564-3.375
		c-11.523,1.369-22.465-0.888-32.607-6.791c-19.748-11.496-29.387-29.298-32.287-51.352c-0.456-3.464-1.38-7.007-1.048-10.411
		c1.443-14.775,4.431-29.219,13.639-41.369c9.206-12.145,20.876-20.888,36.27-23.77
		C351.372,267.932,352.361,267.682,353.626,267.401z"/>
	<path d="M314.47,434.686c0,15.385,0,30.588,0,46.052c-53.811,0-107.584,0-161.623,0c0-15.295,0-30.564,0-46.052
		C206.721,434.686,260.491,434.686,314.47,434.686z"/>
	<path d="M306.945,521.244c0,7.851-0.002,15.303,0.001,22.754c0.001,3.632-0.03,7.264,0.036,10.894
		c0.029,1.577-0.559,2.237-2.174,2.228c-7.462-0.042-14.924-0.019-22.867-0.019c0-11.967,0-23.719,0-35.686
		c-33.118,0-65.754,0-98.762,0c0,11.807,0,23.469,0,35.411c-8.494,0-16.621,0-25.141,0c0-11.684,0-23.357,0-35.47
		c-13.282,0-26.182,0-39.604,0c0-3.916-0.004-7.403,0.001-10.891c0.005-3.424,0.137-6.853-0.012-10.27
		c-0.096-2.197,0.673-2.823,2.838-2.811c13.488,0.076,26.977,0.013,40.465,0.012c39.22-0.003,78.44-0.002,117.66,0.004
		c22.93,0.003,45.861,0.054,68.791-0.023c2.464-0.008,3.216,0.697,3.151,3.159c-0.157,5.91-0.129,11.829,0.02,17.74
		c0.06,2.362-0.768,2.981-3.052,2.966c-12.554-0.082-25.109-0.014-37.663,0.002C309.52,521.245,308.405,521.244,306.945,521.244z"/>
</g>
</svg>
