<?xml version="1.0" encoding="iso-8859-1"?>
<!-- Generator: Adobe Illustrator 19.1.0, SVG Export Plug-In . SVG Version: 6.00 Build 0)  -->
<svg version="1.1" id="Livello_1" xmlns="http://www.w3.org/2000/svg" xmlns:xlink="http://www.w3.org/1999/xlink" x="0px" y="0px"
	 viewBox="0 0 595.28 841.89" style="enable-background:new 0 0 595.28 841.89;" xml:space="preserve">
<line style="display:none;fill:none;stroke:#000000;stroke-miterlimit:10;" x1="0" y1="0" x2="595.28" y2="841.89"/>
<line style="display:none;fill:none;stroke:#000000;stroke-miterlimit:10;" x1="0" y1="841.89" x2="595.28" y2="0"/>
<g style="display:none;">
	<path style="display:inline;" d="M206.215,280.682c2.967,1.038,4.508,3.165,5.215,6.207c1.088,4.683,2.52,9.286,3.615,13.969
		c0.38,1.625,1.071,2,2.638,1.998c34.053-0.046,68.106-0.04,102.158-0.04c42.322,0,84.644,0.001,126.965,0.006
		c6.052,0.001,8.855,3.977,6.73,9.551c-17.91,46.979-35.824,93.956-53.741,140.932c-1.401,3.673-3.243,4.856-7.72,4.858
		c-24.025,0.013-48.051,0.006-72.076,0.007c-22.463,0.001-44.925,0.002-67.388,0.009c-0.445,0-0.89,0.065-1.642,0.124
		c1.229,7.507,2.441,14.909,3.679,22.467c6.065,0,11.98,0.001,17.895,0c37.241-0.007,74.483-0.017,111.724-0.016
		c6.741,0,11.709,3.233,13.948,9.01c3.332,8.596-2.608,18.263-11.837,18.69c-7.927,0.367-15.882,0.143-23.825,0.144
		c-42.582,0.006-85.165,0.002-127.747,0c-4.352,0-6.516-1.763-7.487-6.09c-6.519-29.049-13.027-58.1-19.556-87.147
		c-6.546-29.118-13.113-58.232-19.671-87.347c-1.629-7.23-3.256-14.46-4.889-21.689c-0.128-0.566-0.288-1.124-0.46-1.792
		c-4.478,0-8.898-0.004-13.318,0.001c-6.576,0.007-13.154-0.07-19.727,0.063c-3.923,0.079-6.675-1.318-7.95-5.159
		c0-4.558,0-9.116,0-13.675c0.842-2.545,2.521-4.251,5.079-5.079C166.624,280.682,186.42,280.682,206.215,280.682z"/>
	<path style="display:inline;" d="M288.362,539.072c0.138,12.306-10.086,22.748-22.431,22.91
		c-12.723,0.167-23.234-10.03-23.327-22.629c-0.093-12.605,10.075-22.967,22.658-23.091
		C277.973,516.136,288.219,526.254,288.362,539.072z"/>
	<path style="display:inline;" d="M395.88,539.322c-0.144,12.684-10.586,22.855-23.268,22.662
		c-12.454-0.189-22.682-10.691-22.473-23.073c0.216-12.756,10.563-22.824,23.282-22.655
		C385.885,516.422,396.021,526.832,395.88,539.322z"/>
</g>
<g style="display:none;">
	<path style="display:inline;" d="M353.626,267.401c-0.6-8.069,0.73-15.429,4.98-21.841c9.721-14.664,27.54-20.945,44.47-15.09
		c7.663,2.65,13.813,7.177,18.035,14.018c2.234,3.619,3.991,7.596,5.458,11.597c0.697,1.9,1.365,2.557,3.347,2.686
		c14.128,0.917,26.276,6.053,35.905,16.776c13.439,14.966,15.568,31.896,8.937,50.315c-1.248,3.467-3.227,6.747-5.322,9.803
		c-1.33,1.94-1.403,3.115-0.079,5.084c12.228,18.195,12.293,42.528-0.686,59.607c-12.47,16.41-29.599,24.104-50.242,23.705
		c-2.993-0.058-6.032-0.352-8.95-0.991c-2.576-0.564-3.274,0.041-3.26,2.652c0.096,18.781,0.077,37.562,0.075,56.343
		c-0.001,21.272-0.019,42.544-0.041,63.815c-0.001,0.909-0.11,1.818-0.195,3.149c-7.484,0-14.816,0.056-22.142-0.122
		c-0.507-0.012-1.384-1.772-1.392-2.725c-0.104-12.866-0.09-25.733-0.093-38.6c-0.005-31.336-0.053-62.673,0.055-94.009
		c0.014-4.027-3.561-5.005-5.29-7.523c-0.266-0.388-1.031-0.471-1.227-0.863c-2.128-4.26-5.452-3.863-9.564-3.375
		c-11.523,1.369-22.465-0.888-32.607-6.791c-19.748-11.496-29.387-29.298-32.287-51.352c-0.456-3.464-1.38-7.007-1.048-10.411
		c1.443-14.775,4.431-29.219,13.639-41.369c9.206-12.145,20.876-20.888,36.27-23.77
		C351.372,267.932,352.361,267.682,353.626,267.401z"/>
	<path style="display:inline;" d="M314.47,434.686c0,15.385,0,30.588,0,46.052c-53.811,0-107.584,0-161.623,0
		c0-15.295,0-30.564,0-46.052C206.721,434.686,260.491,434.686,314.47,434.686z"/>
	<path style="display:inline;" d="M306.945,521.244c0,7.851-0.002,15.303,0.001,22.754c0.001,3.632-0.03,7.264,0.036,10.894
		c0.029,1.577-0.559,2.237-2.174,2.228c-7.462-0.042-14.924-0.019-22.867-0.019c0-11.967,0-23.719,0-35.686
		c-33.118,0-65.754,0-98.762,0c0,11.807,0,23.469,0,35.411c-8.494,0-16.621,0-25.141,0c0-11.684,0-23.357,0-35.47
		c-13.282,0-26.182,0-39.604,0c0-3.916-0.004-7.403,0.001-10.891c0.005-3.424,0.137-6.853-0.012-10.27
		c-0.096-2.197,0.673-2.823,2.838-2.811c13.488,0.076,26.977,0.013,40.465,0.012c39.22-0.003,78.44-0.002,117.66,0.004
		c22.93,0.003,45.861,0.054,68.791-0.023c2.464-0.008,3.216,0.697,3.151,3.159c-0.157,5.91-0.129,11.829,0.02,17.74
		c0.06,2.362-0.768,2.981-3.052,2.966c-12.554-0.082-25.109-0.014-37.663,0.002C309.52,521.245,308.405,521.244,306.945,521.244z"/>
</g>
<g style="display:none;">
	<path style="display:inline;" d="M410.739,393.687c0,1.258,0,2.201,0,3.145c0,61.97,0,123.94-0.001,185.91
		c0,3.16-0.003,3.168-3.068,3.169c-13.165,0.004-26.33-0.062-39.493,0.062c-2.348,0.022-2.739-0.789-2.737-2.879
		c0.054-52.578,0.049-105.155,0.054-157.733c0-1.272,0-2.544,0-3.996c-14.747,0-29.314,0-44.175,0c0,54.669,0,109.433,0,164.38
		c-15.175,0-30.057,0-45.209,0c0-54.738,0-109.438,0-164.349c-14.891,0-29.514,0-44.44,0c0,2.425,0,4.81,0,7.194
		c0,51.373,0,102.746-0.001,154.119c0,3.215-0.003,3.217-3.265,3.217c-13.004,0.001-26.008,0.001-39.012,0.001
		c-0.87,0-1.739,0-2.934,0c0-64.126,0-128.04,0-192.247c-1.581,0-2.84,0-4.1,0c-8.348-0.002-16.697-0.041-25.045,0.009
		c-4.532,0.027-8.56-1.251-11.905-4.338c-5.758-5.313-5.463-13.945,0.812-18.662c2.837-2.133,5.987-3.904,9.147-5.544
		c38.294-19.875,76.617-39.696,114.932-59.531c6.195-3.207,12.353-6.491,18.61-9.574c1.651-0.813,2.087-1.774,2.083-3.507
		c-0.053-23.118-0.049-46.236-0.024-69.354c0.006-5.53,2.264-7.684,7.821-7.667c4.952,0.016,7.402,2.215,7.257,7.17
		c-0.075,2.572,0.963,3.483,3.161,4.139c6.872,2.052,13.88,2.589,20.96,1.912c8.778-0.84,17.517-2.093,26.3-2.852
		c9.994-0.863,19.872-0.014,29.482,3.091c1.173,0.379,2.154,0.7,2.146,2.36c-0.065,14.93-0.043,29.861-0.056,44.792
		c0,0.297-0.111,0.594-0.158,0.831c-4.539-0.951-8.952-2.044-13.425-2.776c-9.27-1.517-18.557-1.048-27.8,0.337
		c-10.653,1.596-21.306,3.131-32.074,1.216c-2.737-0.487-5.407-1.352-8.455-2.132c0,2.731-0.001,5.425,0,8.119
		c0.002,3.692,0.081,7.387-0.028,11.076c-0.047,1.594,0.513,2.41,1.932,3.14c18.901,9.715,37.763,19.507,56.645,29.262
		c27.856,14.391,55.725,28.756,83.573,43.162c4.403,2.278,7.432,8.524,6.697,13.455c-0.891,5.978-5.061,10.42-11.089,11.409
		c-2.672,0.439-5.433,0.428-8.155,0.446C427.523,393.721,419.344,393.687,410.739,393.687z"/>
	<path style="display:inline;" d="M141.135,626.651c1.179-0.916,1.891-1.394,2.516-1.966c8.405-7.693,16.838-15.355,25.16-23.137
		c1.763-1.648,3.523-2.344,5.956-2.339c42.614,0.077,85.229,0.067,127.843,0.071c40.046,0.004,80.093,0.015,120.139-0.038
		c2.069-0.003,3.601,0.533,5.109,1.977c8.806,8.433,17.7,16.774,26.867,25.432C350.239,626.651,246.112,626.651,141.135,626.651z"/>
</g>
<g style="display:none;">
	<path style="display:inline;" d="M403.335,501.195c-5.141-7.114-9.826-14.139-15.053-20.735
		c-22.6-28.519-51.084-48.891-85.495-60.814c-3.246-1.124-4.804-2.58-5.467-6.116c-2.225-11.863-4.511-23.691-4.27-35.83
		c0.049-2.468,0.404-4.931,0.673-8.031c6.04,1.236,11.83,2.28,17.552,3.618c18.612,4.352,36.552,10.515,53.231,20.035
		c12.431,7.096,23.731,15.698,33.112,26.481c9.552,10.979,18.498,22.486,27.657,33.804c0.533,0.659,1.002,1.804,0.814,2.551
		C421.887,472.844,413.83,487.589,403.335,501.195z"/>
	<path style="display:inline;" d="M174.543,469.382c2.363,0,4.053-0.026,5.743,0.004c21.421,0.384,42.035-3.538,61.923-11.472
		c16.205-6.465,30.424-16.135,43.956-26.948c2.847-2.275,5.744-4.493,8.713-6.604c0.736-0.523,2.021-0.98,2.756-0.697
		c14.753,5.679,29.471,11.453,42.748,20.251c0.312,0.207,0.562,0.507,1.267,1.155c-6.095,6.291-11.975,12.698-18.216,18.732
		c-11.756,11.366-24.51,21.477-38.843,29.469c-15.133,8.438-31.306,13.756-48.5,15.873c-9.972,1.228-19.968,2.256-29.951,3.395
		c-1.974,0.225-3.635,0.01-5.209-1.543C189.123,499.342,181.091,485.326,174.543,469.382z"/>
	<path style="display:inline;" d="M315.004,290.617c-3.972,7.975-8.014,15.377-11.414,23.062
		c-7.541,17.045-12.653,34.773-14.685,53.395c-1.842,16.874-0.862,33.438,3.72,49.796c0.24,0.856-0.14,2.443-0.79,2.908
		c-11.922,8.539-23.928,16.959-35.922,25.397c-0.22,0.155-0.506,0.215-1.133,0.47c-0.992-2.035-2.104-4.017-2.953-6.106
		c-4.905-12.065-9.167-24.366-11.063-37.283c-1.42-9.678-1.592-19.433-0.966-29.27c0.788-12.386,2.808-24.497,5.972-36.442
		c3.591-13.553,8.724-26.534,14.921-39.107c1.098-2.229,2.631-3.38,5.093-4.007c12.163-3.097,24.5-4.377,37.015-3.914
		C306.805,289.665,310.796,290.226,315.004,290.617z"/>
	<path style="display:inline;" d="M427.743,446.479c-3.797-4.533-7.431-9.216-11.424-13.569
		c-8.873-9.675-17.739-19.369-26.964-28.704c-7.555-7.645-16.877-12.89-26.425-17.701c-17.437-8.786-35.81-14.917-54.766-19.397
		c-4.361-1.031-8.763-1.891-13.908-2.993c0.912-5.009,1.41-10.15,2.829-15.023c2.585-8.878,5.793-17.572,8.572-26.396
		c0.83-2.634,2.4-3.186,4.73-2.587c8.687,2.234,17.487,4.119,26.021,6.837c22.612,7.204,42.961,18.65,59.907,35.297
		c10.859,10.668,20.62,22.457,30.816,33.795c3.227,3.588,2.639,8.323,3,12.581c0.623,7.339,0.832,14.748,0.62,22.111
		c-0.149,5.199-1.28,10.37-1.972,15.553C428.434,446.349,428.088,446.414,427.743,446.479z"/>
	<path style="display:inline;" d="M208.68,518.194c5.047-0.543,9.694-0.971,14.322-1.553c30.934-3.885,60.084-12.556,85.361-31.714
		c10.317-7.82,18.776-17.533,27.779-26.702c3.289-3.35,6.859-6.425,10.743-10.037c3.247,2.388,7.441,4.816,10.815,8.088
		c7.217,6.999,14.042,14.406,20.916,21.75c0.536,0.573,0.455,2.036,0.193,2.953c-0.243,0.85-1.049,1.583-1.713,2.264
		c-21.02,21.574-45.102,38.671-73.383,49.386c-15.335,5.81-31.256,9.119-47.634,10.803c-7.36,0.757-13.321-1.247-19.332-4.593
		c-9.853-5.484-18.776-12.266-27.332-19.561C209.213,519.107,209.103,518.829,208.68,518.194z"/>
	<path style="display:inline;" d="M254.159,297.267c-3.886,10.78-7.884,21.228-11.423,31.829
		c-5.73,17.164-9.135,34.799-8.999,52.953c0.095,12.599,2.529,24.921,5.961,36.995c2.504,8.807,5.584,17.45,8.413,26.165
		c0.32,0.986,0.672,1.961,1.037,3.021c-8.714,5.233-18.059,8.519-27.794,10.761c-4.463,1.028-8.993,1.759-13.462,2.762
		c-1.853,0.416-2.316-0.674-2.871-1.973c-4.225-9.894-6.854-20.245-8.84-30.779c-2.412-12.796-2.89-25.748-2.218-38.682
		c0.832-16.021,4.059-31.64,9.494-46.781c2.289-6.378,4.301-12.855,6.524-19.258c0.39-1.125,0.98-2.354,1.847-3.113
		c12.122-10.621,25.976-18.265,41.116-23.656C253.285,297.388,253.66,297.363,254.159,297.267z"/>
	<path style="display:inline;" d="M262,548.177c23.447-2.924,45.534-10.09,66.353-21.07c20.886-11.015,39.173-25.441,55.344-43.489
		c0.721,1.028,1.16,1.638,1.583,2.259c4.209,6.188,8.394,12.392,12.638,18.556c0.946,1.374,1.026,2.318-0.226,3.708
		c-20.145,22.353-44.821,36.895-74.308,43.023c-13.132,2.729-26.457,3.266-39.778,1.716c-7.242-0.843-14.405-2.368-21.603-3.586
		C262.003,548.922,262.001,548.55,262,548.177z"/>
	<path style="display:inline;" d="M309.294,314.759c3.967-7.653,7.633-14.905,11.552-22.018c0.399-0.724,2.442-1.098,3.5-0.812
		c7.362,1.991,14.895,3.625,21.943,6.445c22.716,9.09,41.737,23.357,56.856,42.631c9.718,12.389,17.097,26.072,21.584,41.234
		c0.135,0.455,0.263,0.916,0.332,1.383c0.036,0.246-0.064,0.511-0.179,1.286C394.891,347.34,357.467,322.503,309.294,314.759z"/>
	<path style="display:inline;" d="M201.461,331.504c-15.839,43.554-19.43,87.164-0.98,131.223c-2.586,0.434-4.312,0.922-6.053,0.981
		c-6.432,0.218-12.87,0.251-19.303,0.451c-1.895,0.059-3.009-0.545-3.625-2.421c-4.461-13.603-6.373-27.53-6.083-41.853
		c0.27-13.323,2.377-26.291,6.465-38.932c5.829-18.026,14.797-34.28,27.754-48.22c0.326-0.351,0.658-0.7,1.017-1.016
		C200.768,331.615,200.979,331.624,201.461,331.504z"/>
</g>
<g style="display:none;">
	<path style="display:inline;" d="M314.206,73.162c18.78,4.112,36.635,10.143,51.026,23.756
		c29.222,27.643,39.515,61.388,26.141,99.057c-15.504,43.671-34.232,86.212-51.991,129.065
		c-12.227,29.505-25.181,58.708-37.832,88.037c-1.161,2.691-2.479,5.315-4.434,9.484c-12.362-33.176-24.28-64.627-35.805-96.221
		c-15.257-41.825-29.968-83.849-45.343-125.63c-22.467-61.053,19.352-119.657,73.612-126.277c0.848-0.103,1.619-0.834,2.426-1.271
		C299.407,73.162,306.806,73.162,314.206,73.162z M301.729,240.055c40.332,1.27,73.492-30.618,74.64-71.776
		c1.093-39.169-31.068-73.335-70.229-74.608c-40.97-1.331-74.593,30.298-76.164,71.649
		C228.46,205.237,260.647,238.761,301.729,240.055z"/>
	<path style="display:inline;" d="M315.873,208.176c-0.368-2.249-0.736-4.498-1.133-6.928c-6.662,0-12.782,0-19.527,0
		c-0.719,2.347-1.47,4.803-2.222,7.258c-0.62-0.579-1.24-1.157-1.86-1.736c-2.885,2.912-5.418,6.355-8.764,8.571
		c-2.807,1.859-6.707,3.392-9.852,2.983c-2.363-0.307-5.193-3.545-6.283-6.125c-11.31-26.79-3.795-54.969-5.613-82.483
		c-0.602-9.114,4.291-13.785,13.312-13.871c19.418-0.185,38.841-0.182,58.259,0.01c9.026,0.089,13.587,4.604,13.674,13.773
		c0.208,21.875,0.541,43.771-0.251,65.619c-0.252,6.957-3.28,14.061-6.176,20.593c-2.199,4.959-12.99,3.468-15.852-1.458
		c-1.603-2.758-4.015-5.046-6.063-7.545C316.974,207.282,316.423,207.729,315.873,208.176z M337.789,160.335
		c0-11.014,0-21.237,0-31.402c-23.649,0-46.514,0-69.608,0c0,10.763,0,20.751,0,31.402
		C291.706,160.335,314.768,160.335,337.789,160.335z M337.687,180.929c-21.702-2.262-22.824-1.876-20.977,6.877
		C337.171,188.653,337.171,188.653,337.687,180.929z M293.458,181.218c-21.863-2.528-23.536-1.989-22.426,7.354
		C277.742,185.178,287.602,193.587,293.458,181.218z M320.672,124.312c0.008-0.571,0.017-1.143,0.025-1.715
		c-11.713,0-23.427,0-35.14,0c-0.007,0.572-0.015,1.143-0.022,1.715C297.247,124.312,308.96,124.312,320.672,124.312z"/>
</g>
<g style="display:none;">
	<path style="display:inline;" d="M425.944,421.725c-0.353,68.54-55.858,127.081-128.749,126.389
		c-69.625-0.661-125.596-57.784-125.577-126.544c0.018-68.764,56.382-126.594,127.287-126.394
		C370.689,295.379,425.64,353.286,425.944,421.725z M415.132,421.593c-0.072-65.624-53.453-116.992-117.685-116.318
		c-64.764,0.68-115.407,53.842-115.321,116.52c0.086,62.575,50.765,116.244,116.645,116.233
		C362.468,538.018,415.057,486.975,415.132,421.593z"/>
	<path style="display:inline;" d="M194.254,421.53c0.074-57.459,46.81-103.447,105.047-103.366
		c57.475,0.08,104.003,46.594,103.957,103.751c-0.046,57.853-48.177,104.299-106.58,103.192
		C241.646,524.065,194.509,480.32,194.254,421.53z M392.84,421.7c0.053-51.802-42.261-92.906-92.855-93.516
		c-51.867-0.625-95.186,40.737-95.23,93.307c-0.044,52.673,42.75,93.032,92.862,93.603
		C349.848,515.689,392.875,473.628,392.84,421.7z"/>
	<path style="display:inline;" d="M380.596,421.304c0.2,42.555-35.073,80.564-81.505,80.637
		c-44.592,0.071-81.547-36.098-81.597-80.553c-0.05-44.448,37.094-80.651,81.51-80.632
		C345.128,340.777,380.791,378.608,380.596,421.304z M299.11,491.907c39.216-0.093,70.697-31.554,70.675-70.629
		c-0.022-39.097-31.585-70.316-70.809-70.438c-40.078-0.125-71.179,33.518-71.022,70.741
		C228.108,458.496,258.698,491.916,299.11,491.907z"/>
	<path style="display:inline;" d="M299.057,383.578c19.928-0.116,38.267,16.078,38.238,37.768
		c-0.029,21.738-18.193,37.916-38.245,37.779c-21.382-0.146-38.017-16.404-38.17-37.783
		C260.73,400.419,277.863,383.592,299.057,383.578z"/>
</g>
<g>
	<path d="M246.203,406.146c-10.122,0-18.91,0-28.15,0c0-4.146,0-7.956,0-12.138c16.333,0,32.747,0,49.427,0
		c0.942,6.153,0.929,11.55-4.551,16.608c-9.222,8.511-17.567,17.971-27.005,27.783c11.356,0,21.818,0,32.687,0
		c0,4.34,0,8.127,0,12.23c-17.86,0-35.607,0-53.595,0c-1.127-6.345-1.022-11.774,4.331-16.807
		C228.363,425.344,236.643,416.085,246.203,406.146z"/>
	<path d="M291.225,407.59c-6.562,0-12.066,0-17.869,0c0-4.699,0-9.019,0-13.643c17.751,0,35.451,0,53.407,0c0,4.46,0,8.774,0,13.668
		c-4.578,0-8.962,0.276-13.294-0.08c-4.069-0.334-4.936,1.312-4.863,5.035c0.212,10.777,0.075,21.561,0.075,32.342
		c0,1.766,0,3.532,0,5.658c-5.871,0-11.325,0-17.456,0C291.225,436.442,291.225,422.346,291.225,407.59z"/>
	<path d="M335.102,450.631c0-19.149,0-37.727,0-56.647c5.743,0,11.352,0,17.521,0c0,14.149,0,28.257,0,42.883
		c9.44,0,18.335,0,27.51,0c0,4.84,0,9.149,0,13.764C365.093,450.631,350.321,450.631,335.102,450.631z"/>
</g>
<circle style="fill:none;stroke:#000000;stroke-width:19;stroke-miterlimit:10;" cx="297.64" cy="424.5" r="108"/>
</svg>
